<svg width="146" height="213" viewBox="0 0 146 213" fill="none" xmlns="http://www.w3.org/2000/svg">
<path d="M1.232 175.544C7.76 170.36 10.736 167.96 10.16 168.344C28.976 152.792 43.76 140.024 54.512 130.04C65.456 120.056 74.672 109.592 82.16 98.648C89.648 87.704 93.392 77.048 93.392 66.68C93.392 58.808 91.568 52.664 87.92 48.248C84.272 43.832 78.8 41.624 71.504 41.624C64.208 41.624 58.448 44.408 54.224 49.976C50.192 55.352 48.176 63.032 48.176 73.016H0.656C1.04 56.696 4.496 43.064 11.024 32.12C17.744 21.176 26.48 13.112 37.232 7.92799C48.176 2.74399 60.272 0.151985 73.52 0.151985C96.368 0.151985 113.552 6.00798 125.072 17.72C136.784 29.432 142.64 44.696 142.64 63.512C142.64 84.056 135.632 103.16 121.616 120.824C107.6 138.296 89.744 155.384 68.048 172.088H145.808V212.12H1.232V175.544Z" fill="#FF001E" fill-opacity="0.2"/>
</svg>
