<svg width="147" height="218" viewBox="0 0 147 218" fill="none" xmlns="http://www.w3.org/2000/svg">
<path d="M2.688 65.088C3.456 44.544 10.176 28.704 22.848 17.568C35.52 6.43199 52.704 0.863989 74.4 0.863989C88.8 0.863989 101.088 3.35999 111.264 8.352C121.632 13.344 129.408 20.16 134.592 28.8C139.968 37.44 142.656 47.136 142.656 57.888C142.656 70.56 139.488 80.928 133.152 88.992C126.816 96.864 119.424 102.24 110.976 105.12V106.272C121.92 109.92 130.56 115.968 136.896 124.416C143.232 132.864 146.4 143.712 146.4 156.96C146.4 168.864 143.616 179.424 138.048 188.64C132.672 197.664 124.704 204.768 114.144 209.952C103.776 215.136 91.392 217.728 76.992 217.728C53.952 217.728 35.52 212.064 21.696 200.736C8.064 189.408 0.864001 172.32 0.0960009 149.472H47.904C48.096 157.92 50.496 164.64 55.104 169.632C59.712 174.432 66.432 176.832 75.264 176.832C82.752 176.832 88.512 174.72 92.544 170.496C96.768 166.08 98.88 160.32 98.88 153.216C98.88 144 95.904 137.376 89.952 133.344C84.192 129.12 74.88 127.008 62.016 127.008H52.8V86.976H62.016C71.808 86.976 79.68 85.344 85.632 82.08C91.776 78.624 94.848 72.576 94.848 63.936C94.848 57.024 92.928 51.648 89.088 47.808C85.248 43.968 79.968 42.048 73.248 42.048C65.952 42.048 60.48 44.256 56.832 48.672C53.376 53.088 51.36 58.56 50.784 65.088H2.688Z" fill="#FF001E" fill-opacity="0.2"/>
</svg>
