<svg width="150" height="211" viewBox="0 0 150 211" fill="none" xmlns="http://www.w3.org/2000/svg">
<path d="M136.992 43.672H47.136V83.416C50.976 79.192 56.352 75.736 63.264 73.048C70.176 70.36 77.664 69.016 85.728 69.016C100.128 69.016 112.032 72.28 121.44 78.808C131.04 85.336 138.048 93.784 142.464 104.152C146.88 114.52 149.088 125.752 149.088 137.848C149.088 160.312 142.752 178.168 130.08 191.416C117.408 204.472 99.552 211 76.512 211C61.152 211 47.808 208.408 36.48 203.224C25.152 197.848 16.416 190.456 10.272 181.048C4.128 171.64 0.768002 160.792 0.192002 148.504H48.288C49.44 154.456 52.224 159.448 56.64 163.48C61.056 167.32 67.104 169.24 74.784 169.24C83.808 169.24 90.528 166.36 94.944 160.6C99.36 154.84 101.568 147.16 101.568 137.56C101.568 128.152 99.264 120.952 94.656 115.96C90.048 110.968 83.328 108.472 74.496 108.472C67.968 108.472 62.592 110.104 58.368 113.368C54.144 116.44 51.36 120.568 50.016 125.752H2.496V0.471998H136.992V43.672Z" fill="#FF001E" fill-opacity="0.2"/>
</svg>
