<svg width="50" height="50" viewBox="0 0 50 50" fill="none" xmlns="http://www.w3.org/2000/svg">
<path d="M45.8333 20.8334V31.25C45.8333 41.6667 41.6666 45.8334 31.25 45.8334H18.75C8.33329 45.8334 4.16663 41.6667 4.16663 31.25V18.75C4.16663 8.33335 8.33329 4.16669 18.75 4.16669H29.1666" stroke="#FF001E" stroke-width="1.5" stroke-linecap="round" stroke-linejoin="round"/>
<path d="M45.8333 20.8334H37.5C31.25 20.8334 29.1666 18.75 29.1666 12.5V4.16669L45.8333 20.8334Z" stroke="#FF001E" stroke-width="1.5" stroke-linecap="round" stroke-linejoin="round"/>
<path d="M17.5866 31.8879C17.5325 31.8825 17.4675 31.8825 17.4079 31.8879C16.1187 31.8446 15.095 30.7883 15.095 29.4883C15.095 28.1612 16.1675 27.0833 17.5 27.0833C18.8271 27.0833 19.905 28.1612 19.905 29.4883C19.8996 30.7883 18.8758 31.8446 17.5866 31.8879Z" stroke="#FF001E" stroke-linecap="round" stroke-linejoin="round"/>
<path d="M14.8784 33.8867C13.5676 34.7642 13.5676 36.1942 14.8784 37.0663C16.368 38.0629 18.8109 38.0629 20.3005 37.0663C21.6113 36.1888 21.6113 34.7588 20.3005 33.8867C18.8163 32.8954 16.3734 32.8954 14.8784 33.8867Z" stroke="#FF001E" stroke-linecap="round" stroke-linejoin="round"/>
</svg>
