<svg width="32" height="32" viewBox="0 0 32 32" fill="none" xmlns="http://www.w3.org/2000/svg">
<path fill-rule="evenodd" clip-rule="evenodd" d="M9.32525 0.510248C10.987 0.433748 11.5168 0.416748 15.7498 0.416748C19.9828 0.416748 20.5127 0.435165 22.173 0.510248C23.8333 0.585331 24.9667 0.850248 25.9583 1.23416C26.9968 1.62658 27.9388 2.24 28.718 3.03333C29.5113 3.81108 30.1233 4.75175 30.5143 5.79158C30.8997 6.78325 31.1632 7.91658 31.2397 9.57408C31.3162 11.2387 31.3332 11.7685 31.3332 16.0001C31.3332 20.2331 31.3148 20.7629 31.2397 22.4247C31.1646 24.0822 30.8997 25.2155 30.5143 26.2072C30.1233 27.2471 29.5103 28.1894 28.718 28.9682C27.9388 29.7616 26.9968 30.3736 25.9583 30.7646C24.9667 31.1499 23.8333 31.4134 22.1758 31.4899C20.5127 31.5664 19.9828 31.5834 15.7498 31.5834C11.5168 31.5834 10.987 31.565 9.32525 31.4899C7.66775 31.4148 6.53442 31.1499 5.54275 30.7646C4.50281 30.3735 3.56058 29.7605 2.78167 28.9682C1.98888 28.19 1.37537 27.2483 0.983921 26.2086C0.600004 25.2169 0.336504 24.0836 0.260004 22.4261C0.183504 20.7615 0.166504 20.2317 0.166504 16.0001C0.166504 11.7671 0.184921 11.2372 0.260004 9.57691C0.335087 7.91658 0.600004 6.78325 0.983921 5.79158C1.37594 4.75186 1.98992 3.81011 2.78309 3.03191C3.56089 2.23929 4.50217 1.62579 5.54134 1.23416C6.533 0.850248 7.66634 0.586748 9.32384 0.510248H9.32525ZM22.0469 3.31525C20.4036 3.24016 19.9106 3.22458 15.7498 3.22458C11.5891 3.22458 11.0961 3.24016 9.45275 3.31525C7.93267 3.38466 7.10817 3.63825 6.5585 3.85216C5.83175 4.1355 5.31184 4.47125 4.76642 5.01666C4.2494 5.51965 3.85151 6.13198 3.60192 6.80875C3.388 7.35841 3.13442 8.18291 3.065 9.703C2.98992 11.3463 2.97434 11.8393 2.97434 16.0001C2.97434 20.1608 2.98992 20.6538 3.065 22.2972C3.13442 23.8172 3.388 24.6417 3.60192 25.1914C3.85125 25.8672 4.24934 26.4806 4.76642 26.9835C5.26934 27.5006 5.88275 27.8987 6.5585 28.148C7.10817 28.3619 7.93267 28.6155 9.45275 28.6849C11.0961 28.76 11.5877 28.7756 15.7498 28.7756C19.912 28.7756 20.4036 28.76 22.0469 28.6849C23.567 28.6155 24.3915 28.3619 24.9412 28.148C25.6679 27.8647 26.1878 27.5289 26.7333 26.9835C27.2503 26.4806 27.6484 25.8672 27.8978 25.1914C28.1117 24.6417 28.3653 23.8172 28.4347 22.2972C28.5098 20.6538 28.5253 20.1608 28.5253 16.0001C28.5253 11.8393 28.5098 11.3463 28.4347 9.703C28.3653 8.18291 28.1117 7.35841 27.8978 6.80875C27.6144 6.082 27.2787 5.56208 26.7333 5.01666C26.2302 4.49968 25.6179 4.1018 24.9412 3.85216C24.3915 3.63825 23.567 3.38466 22.0469 3.31525ZM13.7594 20.804C14.871 21.2667 16.1088 21.3292 17.2613 20.9807C18.4138 20.6322 19.4096 19.8944 20.0786 18.8933C20.7476 17.8921 21.0482 16.6898 20.9292 15.4916C20.8102 14.2935 20.2789 13.1738 19.4261 12.3238C18.8824 11.7805 18.2251 11.3645 17.5013 11.1057C16.7776 10.8469 16.0054 10.7518 15.2405 10.8273C14.4756 10.9027 13.737 11.1468 13.0777 11.542C12.4185 11.9372 11.8551 12.4736 11.428 13.1127C11.001 13.7518 10.7209 14.4776 10.6081 15.2379C10.4952 15.9981 10.5523 16.774 10.7753 17.5096C10.9982 18.2451 11.3815 18.9221 11.8975 19.4918C12.4135 20.0614 13.0494 20.5096 13.7594 20.804ZM10.086 10.3362C10.8298 9.59246 11.7128 9.00246 12.6846 8.59993C13.6564 8.19739 14.698 7.99021 15.7498 7.99021C16.8017 7.99021 17.8433 8.19739 18.8151 8.59993C19.7869 9.00246 20.6699 9.59246 21.4137 10.3362C22.1575 11.08 22.7475 11.963 23.15 12.9348C23.5525 13.9066 23.7597 14.9482 23.7597 16.0001C23.7597 17.052 23.5525 18.0935 23.15 19.0653C22.7475 20.0371 22.1575 20.9201 21.4137 21.6639C19.9115 23.1661 17.8742 24.01 15.7498 24.01C13.6255 24.01 11.5881 23.1661 10.086 21.6639C8.58386 20.1618 7.73997 18.1244 7.73997 16.0001C7.73997 13.8757 8.58386 11.8384 10.086 10.3362ZM25.5362 9.18308C25.7205 9.00921 25.868 8.80013 25.9701 8.56821C26.0722 8.33629 26.1267 8.08625 26.1303 7.8329C26.134 7.57954 26.0869 7.32802 25.9916 7.09323C25.8963 6.85843 25.7549 6.64514 25.5758 6.46597C25.3966 6.2868 25.1833 6.1454 24.9485 6.05015C24.7137 5.95489 24.4622 5.90771 24.2089 5.91141C23.9555 5.9151 23.7055 5.96959 23.4735 6.07165C23.2416 6.17371 23.0325 6.32127 22.8587 6.50558C22.5205 6.86404 22.3354 7.34017 22.3426 7.8329C22.3498 8.32563 22.5487 8.79616 22.8971 9.14461C23.2456 9.49306 23.7161 9.69199 24.2089 9.69917C24.7016 9.70635 25.1777 9.52122 25.5362 9.18308Z" fill="#FF001E"/>
</svg>
