<svg width="590" height="250" viewBox="0 0 590 250" fill="none" xmlns="http://www.w3.org/2000/svg">
<rect x="1" y="1" width="588" height="248" stroke="#FF001E" stroke-width="2"/>
<rect width="590" height="50" fill="#FF001E"/>
<path d="M45 134H545" stroke="#FF001E" stroke-width="2"/>
<path d="M45 154H545" stroke="#FF001E" stroke-width="2"/>
<path d="M46 86L61 93L46 98" stroke="#FF001E"/>
<path d="M310.756 222V220.884H312.268V215.718L310.54 215.124L310.918 214.008L313.294 214.836C313.63 214.584 314.014 214.386 314.446 214.242C314.89 214.086 315.316 214.008 315.724 214.008C316.936 214.008 317.8 214.32 318.316 214.944C318.616 214.668 319.006 214.446 319.486 214.278C319.966 214.098 320.428 214.008 320.872 214.008C321.964 214.008 322.75 214.248 323.23 214.728C323.722 215.208 323.968 215.982 323.968 217.05V220.884H325.48V222H321.754V220.884H322.564V217.338C322.564 216.546 322.426 215.988 322.15 215.664C321.886 215.328 321.43 215.16 320.782 215.16C320.398 215.16 320.02 215.22 319.648 215.34C319.288 215.448 319.012 215.592 318.82 215.772V220.884H319.63V222H316.606V220.884H317.416V217.338C317.416 216.546 317.278 215.988 317.002 215.664C316.738 215.328 316.282 215.16 315.634 215.16C315.25 215.16 314.872 215.22 314.5 215.34C314.14 215.448 313.864 215.592 313.672 215.772V220.884H314.482V222H310.756ZM331.377 214.008C332.181 214.008 332.877 214.176 333.465 214.512C334.065 214.836 334.533 215.31 334.869 215.934C335.205 216.546 335.373 217.284 335.373 218.148C335.373 219.432 335.007 220.44 334.275 221.172C333.543 221.904 332.577 222.27 331.377 222.27C330.609 222.27 329.925 222.108 329.325 221.784C328.737 221.448 328.275 220.974 327.939 220.362C327.615 219.738 327.453 219 327.453 218.148C327.453 217.284 327.615 216.546 327.939 215.934C328.275 215.31 328.737 214.836 329.325 214.512C329.925 214.176 330.609 214.008 331.377 214.008ZM331.395 215.16C330.567 215.16 329.943 215.424 329.523 215.952C329.103 216.468 328.893 217.2 328.893 218.148C328.893 219.096 329.103 219.828 329.523 220.344C329.943 220.86 330.567 221.118 331.395 221.118C332.247 221.118 332.883 220.86 333.303 220.344C333.723 219.828 333.933 219.096 333.933 218.148C333.933 217.2 333.723 216.468 333.303 215.952C332.883 215.424 332.247 215.16 331.395 215.16ZM341.548 222.27C341.116 222.27 340.702 222.186 340.306 222.018C339.922 221.85 339.61 221.55 339.37 221.118C339.13 220.686 339.01 220.086 339.01 219.318V215.394H337.516V214.278H339.01V212.532L340.378 212.208V214.278H342.628V215.394H340.378V218.526C340.378 219.33 340.456 219.978 340.612 220.47C340.768 220.962 341.11 221.208 341.638 221.208C342.01 221.208 342.43 221.1 342.898 220.884L343.168 221.892C342.916 221.988 342.652 222.072 342.376 222.144C342.1 222.228 341.824 222.27 341.548 222.27ZM345.289 214.278H348.205V220.884H349.699V222H345.289V220.884H346.783V215.394H345.289V214.278ZM347.305 210.444C347.641 210.444 347.911 210.546 348.115 210.75C348.319 210.954 348.421 211.224 348.421 211.56C348.421 211.896 348.319 212.166 348.115 212.37C347.911 212.574 347.641 212.676 347.305 212.676C346.969 212.676 346.699 212.574 346.495 212.37C346.303 212.166 346.207 211.896 346.207 211.56C346.207 211.224 346.303 210.954 346.495 210.75C346.699 210.546 346.969 210.444 347.305 210.444ZM355.769 214.008C356.573 214.008 357.269 214.176 357.857 214.512C358.457 214.836 358.925 215.31 359.261 215.934C359.597 216.546 359.765 217.284 359.765 218.148C359.765 219.432 359.399 220.44 358.667 221.172C357.935 221.904 356.969 222.27 355.769 222.27C355.001 222.27 354.317 222.108 353.717 221.784C353.129 221.448 352.667 220.974 352.331 220.362C352.007 219.738 351.845 219 351.845 218.148C351.845 217.284 352.007 216.546 352.331 215.934C352.667 215.31 353.129 214.836 353.717 214.512C354.317 214.176 355.001 214.008 355.769 214.008ZM355.787 215.16C354.959 215.16 354.335 215.424 353.915 215.952C353.495 216.468 353.285 217.2 353.285 218.148C353.285 219.096 353.495 219.828 353.915 220.344C354.335 220.86 354.959 221.118 355.787 221.118C356.639 221.118 357.275 220.86 357.695 220.344C358.115 219.828 358.325 219.096 358.325 218.148C358.325 217.2 358.115 216.468 357.695 215.952C357.275 215.424 356.639 215.16 355.787 215.16ZM361.899 222V220.884H363.411V215.718L361.683 215.124L362.061 214.008L364.455 214.836C364.875 214.56 365.319 214.356 365.787 214.224C366.267 214.08 366.735 214.008 367.191 214.008C367.767 214.008 368.295 214.122 368.775 214.35C369.267 214.566 369.657 214.902 369.945 215.358C370.245 215.802 370.395 216.366 370.395 217.05V220.884H371.907V222H368.181V220.884H368.991V217.338C368.991 216.57 368.793 216.018 368.397 215.682C368.013 215.334 367.533 215.16 366.957 215.16C366.273 215.16 365.559 215.364 364.815 215.772V220.884H365.625V222H361.899ZM382.548 222L380.388 215.394H378.876V214.278H382.944V215.394H381.774L382.764 218.472L383.358 220.344L383.916 218.508L384.888 215.376H386.256L387.246 218.598L387.804 220.38L388.344 218.688L389.406 215.394H388.434V214.278H392.142V215.394H390.612L388.506 222H387.138L385.572 217.14L383.952 222H382.548ZM400.559 221.082C400.079 221.49 399.587 221.79 399.083 221.982C398.591 222.174 398.027 222.27 397.391 222.27C396.119 222.27 395.105 221.91 394.349 221.19C393.605 220.458 393.233 219.438 393.233 218.13C393.233 217.302 393.395 216.582 393.719 215.97C394.043 215.346 394.499 214.866 395.087 214.53C395.687 214.182 396.377 214.008 397.157 214.008C398.249 214.008 399.101 214.35 399.713 215.034C400.337 215.718 400.649 216.63 400.649 217.77C400.649 217.878 400.643 217.992 400.631 218.112C400.631 218.22 400.625 218.334 400.613 218.454L394.619 218.49C394.655 219.102 394.799 219.6 395.051 219.984C395.315 220.368 395.645 220.65 396.041 220.83C396.449 221.01 396.881 221.1 397.337 221.1C398.357 221.1 399.215 220.812 399.911 220.236L400.559 221.082ZM399.263 217.356C399.251 216.684 399.053 216.144 398.669 215.736C398.297 215.316 397.799 215.106 397.175 215.106C396.539 215.106 395.981 215.316 395.501 215.736C395.021 216.144 394.733 216.69 394.637 217.374L399.263 217.356ZM406.963 222.27C406.339 222.27 405.727 222.186 405.127 222.018C404.539 221.85 404.017 221.598 403.561 221.262V212.028L401.851 211.434L402.229 210.318L404.947 211.254V214.602C405.691 214.206 406.387 214.008 407.035 214.008C408.355 214.008 409.321 214.326 409.933 214.962C410.557 215.598 410.869 216.588 410.869 217.932C410.869 219.42 410.551 220.518 409.915 221.226C409.291 221.922 408.307 222.27 406.963 222.27ZM406.945 221.118C407.797 221.118 408.421 220.86 408.817 220.344C409.225 219.828 409.429 219.024 409.429 217.932C409.429 216.972 409.231 216.27 408.835 215.826C408.451 215.382 407.845 215.16 407.017 215.16C406.369 215.16 405.679 215.382 404.947 215.826V220.668C405.475 220.968 406.141 221.118 406.945 221.118ZM423.608 211.398H424.922L419.036 224.358H417.704L423.608 211.398ZM436.401 211.398H437.715L431.829 224.358H430.497L436.401 211.398ZM445.63 214.008C445.93 214.008 446.188 214.122 446.404 214.35C446.632 214.566 446.746 214.824 446.746 215.124C446.746 215.424 446.632 215.688 446.404 215.916C446.188 216.132 445.93 216.24 445.63 216.24C445.33 216.24 445.066 216.132 444.838 215.916C444.622 215.688 444.514 215.424 444.514 215.124C444.514 214.824 444.622 214.566 444.838 214.35C445.066 214.122 445.33 214.008 445.63 214.008ZM445.63 220.038C445.93 220.038 446.188 220.152 446.404 220.38C446.632 220.596 446.746 220.854 446.746 221.154C446.746 221.454 446.632 221.718 446.404 221.946C446.188 222.162 445.93 222.27 445.63 222.27C445.33 222.27 445.066 222.162 444.838 221.946C444.622 221.718 444.514 221.454 444.514 221.154C444.514 220.854 444.622 220.596 444.838 220.38C445.066 220.152 445.33 220.038 445.63 220.038ZM454.434 222V220.884H455.946V211.812L454.146 211.416L454.452 210.264L457.35 210.93V220.884H458.862V222H454.434ZM466.557 221.478C465.777 222.006 464.931 222.27 464.019 222.27C461.979 222.27 460.947 221.472 460.923 219.876C460.899 218.304 461.895 217.518 463.911 217.518L466.233 217.536C466.233 215.952 465.627 215.16 464.415 215.16C463.827 215.16 463.287 215.232 462.795 215.376L462.615 216.366L461.463 216.15L461.751 214.512C462.687 214.176 463.557 214.008 464.361 214.008C466.545 214.008 467.637 215.16 467.637 217.464V220.596L469.347 221.154L468.987 222.306L466.557 221.478ZM463.965 218.652C462.897 218.652 462.363 219.054 462.363 219.858C462.363 220.698 462.939 221.118 464.091 221.118C464.919 221.118 465.633 220.89 466.233 220.434V218.67L463.965 218.652ZM475.322 222.27C474.698 222.27 474.086 222.186 473.486 222.018C472.898 221.85 472.376 221.598 471.92 221.262V212.028L470.21 211.434L470.588 210.318L473.306 211.254V214.602C474.05 214.206 474.746 214.008 475.394 214.008C476.714 214.008 477.68 214.326 478.292 214.962C478.916 215.598 479.228 216.588 479.228 217.932C479.228 219.42 478.91 220.518 478.274 221.226C477.65 221.922 476.666 222.27 475.322 222.27ZM475.304 221.118C476.156 221.118 476.78 220.86 477.176 220.344C477.584 219.828 477.788 219.024 477.788 217.932C477.788 216.972 477.59 216.27 477.194 215.826C476.81 215.382 476.204 215.16 475.376 215.16C474.728 215.16 474.038 215.382 473.306 215.826V220.668C473.834 220.968 474.5 221.118 475.304 221.118ZM485.676 214.008C486.48 214.008 487.176 214.176 487.764 214.512C488.364 214.836 488.832 215.31 489.168 215.934C489.504 216.546 489.672 217.284 489.672 218.148C489.672 219.432 489.306 220.44 488.574 221.172C487.842 221.904 486.876 222.27 485.676 222.27C484.908 222.27 484.224 222.108 483.624 221.784C483.036 221.448 482.574 220.974 482.238 220.362C481.914 219.738 481.752 219 481.752 218.148C481.752 217.284 481.914 216.546 482.238 215.934C482.574 215.31 483.036 214.836 483.624 214.512C484.224 214.176 484.908 214.008 485.676 214.008ZM485.694 215.16C484.866 215.16 484.242 215.424 483.822 215.952C483.402 216.468 483.192 217.2 483.192 218.148C483.192 219.096 483.402 219.828 483.822 220.344C484.242 220.86 484.866 221.118 485.694 221.118C486.546 221.118 487.182 220.86 487.602 220.344C488.022 219.828 488.232 219.096 488.232 218.148C488.232 217.2 488.022 216.468 487.602 215.952C487.182 215.424 486.546 215.16 485.694 215.16ZM494.379 214.854C494.787 214.578 495.249 214.368 495.765 214.224C496.281 214.08 496.797 214.008 497.313 214.008C497.745 214.008 497.973 214.02 497.997 214.044L498.303 215.934L497.133 216.186L496.953 215.178C496.581 215.178 496.197 215.232 495.801 215.34C495.417 215.448 495.063 215.598 494.739 215.79V220.884H496.503V222H491.823V220.884H493.335V215.736L491.607 215.142L491.985 214.026L494.379 214.854ZM505.854 221.478C505.074 222.006 504.228 222.27 503.316 222.27C501.276 222.27 500.244 221.472 500.22 219.876C500.196 218.304 501.192 217.518 503.208 217.518L505.53 217.536C505.53 215.952 504.924 215.16 503.712 215.16C503.124 215.16 502.584 215.232 502.092 215.376L501.912 216.366L500.76 216.15L501.048 214.512C501.984 214.176 502.854 214.008 503.658 214.008C505.842 214.008 506.934 215.16 506.934 217.464V220.596L508.644 221.154L508.284 222.306L505.854 221.478ZM503.262 218.652C502.194 218.652 501.66 219.054 501.66 219.858C501.66 220.698 502.236 221.118 503.388 221.118C504.216 221.118 504.93 220.89 505.53 220.434V218.67L503.262 218.652ZM514.124 222.27C513.692 222.27 513.278 222.186 512.882 222.018C512.498 221.85 512.186 221.55 511.946 221.118C511.706 220.686 511.586 220.086 511.586 219.318V215.394H510.092V214.278H511.586V212.532L512.954 212.208V214.278H515.204V215.394H512.954V218.526C512.954 219.33 513.032 219.978 513.188 220.47C513.344 220.962 513.686 221.208 514.214 221.208C514.586 221.208 515.006 221.1 515.474 220.884L515.744 221.892C515.492 221.988 515.228 222.072 514.952 222.144C514.676 222.228 514.4 222.27 514.124 222.27ZM521.053 214.008C521.857 214.008 522.553 214.176 523.141 214.512C523.741 214.836 524.209 215.31 524.545 215.934C524.881 216.546 525.049 217.284 525.049 218.148C525.049 219.432 524.683 220.44 523.951 221.172C523.219 221.904 522.253 222.27 521.053 222.27C520.285 222.27 519.601 222.108 519.001 221.784C518.413 221.448 517.951 220.974 517.615 220.362C517.291 219.738 517.129 219 517.129 218.148C517.129 217.284 517.291 216.546 517.615 215.934C517.951 215.31 518.413 214.836 519.001 214.512C519.601 214.176 520.285 214.008 521.053 214.008ZM521.071 215.16C520.243 215.16 519.619 215.424 519.199 215.952C518.779 216.468 518.569 217.2 518.569 218.148C518.569 219.096 518.779 219.828 519.199 220.344C519.619 220.86 520.243 221.118 521.071 221.118C521.923 221.118 522.559 220.86 522.979 220.344C523.399 219.828 523.609 219.096 523.609 218.148C523.609 217.2 523.399 216.468 522.979 215.952C522.559 215.424 521.923 215.16 521.071 215.16ZM529.756 214.854C530.164 214.578 530.626 214.368 531.142 214.224C531.658 214.08 532.174 214.008 532.69 214.008C533.122 214.008 533.35 214.02 533.374 214.044L533.68 215.934L532.51 216.186L532.33 215.178C531.958 215.178 531.574 215.232 531.178 215.34C530.794 215.448 530.44 215.598 530.116 215.79V220.884H531.88V222H527.2V220.884H528.712V215.736L526.984 215.142L527.362 214.026L529.756 214.854ZM537.685 226.032C537.505 226.032 537.313 226.014 537.109 225.978C536.917 225.954 536.713 225.906 536.497 225.834L536.713 224.754C537.037 224.85 537.325 224.898 537.577 224.898C537.913 224.898 538.189 224.844 538.405 224.736C538.621 224.64 538.813 224.442 538.981 224.142C539.161 223.854 539.347 223.422 539.539 222.846L539.629 222.594L536.245 215.394H534.967V214.278H538.711V215.394H537.685L540.169 221.028L542.095 215.394H541.105V214.278H544.705V215.394H543.409L540.475 223.62C540.211 224.388 539.845 224.982 539.377 225.402C538.921 225.822 538.357 226.032 537.685 226.032Z" fill="#FF001E"/>
</svg>
