<svg width="50" height="50" viewBox="0 0 50 50" fill="none" xmlns="http://www.w3.org/2000/svg">
<path d="M17.7083 39.5208H16.6666C8.33329 39.5208 4.16663 37.4375 4.16663 27.0208V16.6041C4.16663 8.27079 8.33329 4.10413 16.6666 4.10413H33.3333C41.6666 4.10413 45.8333 8.27079 45.8333 16.6041V27.0208C45.8333 35.3541 41.6666 39.5208 33.3333 39.5208H32.2916C31.6458 39.5208 31.0208 39.8333 30.625 40.3542L27.5 44.5208C26.125 46.3542 23.8749 46.3542 22.4999 44.5208L19.3749 40.3542C19.0416 39.8958 18.2916 39.5208 17.7083 39.5208Z" stroke="#FF001E" stroke-width="2" stroke-miterlimit="10" stroke-linecap="round" stroke-linejoin="round"/>
<path d="M16.6667 18.125L12.5 22.2917L16.6667 26.4583" stroke="#FF001E" stroke-width="2" stroke-miterlimit="10" stroke-linecap="round" stroke-linejoin="round"/>
<path d="M33.3334 18.125L37.5 22.2917L33.3334 26.4583" stroke="#FF001E" stroke-width="2" stroke-miterlimit="10" stroke-linecap="round" stroke-linejoin="round"/>
<path d="M27.0833 17.4375L22.9166 27.1459" stroke="#FF001E" stroke-width="2" stroke-miterlimit="10" stroke-linecap="round" stroke-linejoin="round"/>
</svg>
