<svg width="32" height="33" viewBox="0 0 32 33" fill="none" xmlns="http://www.w3.org/2000/svg">
<path fill-rule="evenodd" clip-rule="evenodd" d="M27.2007 4.89977C25.732 3.42148 23.9847 2.2493 22.0598 1.45115C20.1349 0.653006 18.0708 0.244755 15.987 0.250051C7.24916 0.250051 0.135977 7.36149 0.132445 16.1029C0.132445 18.8966 0.861775 21.6232 2.24803 24.0284L0 32.2418L8.40408 30.0362C10.7287 31.3016 13.3331 31.9652 15.9799 31.9663H15.987C24.7231 31.9663 31.8362 24.8549 31.8398 16.1135C31.8458 14.0305 31.4389 11.967 30.6426 10.0423C29.8463 8.11754 28.6765 6.36969 27.2007 4.89977V4.89977ZM15.987 29.2909H15.9817C13.6216 29.2912 11.3049 28.6562 9.27468 27.4526L8.79435 27.1665L3.80735 28.4751L5.1371 23.6134L4.82453 23.1154C3.505 21.0147 2.80648 18.5837 2.8096 16.1029C2.81313 8.83782 8.72371 2.92722 15.9923 2.92722C17.7233 2.92337 19.438 3.26289 21.037 3.92612C22.6359 4.58936 24.0875 5.56313 25.3076 6.79109C26.5342 8.0132 27.5065 9.46631 28.1682 11.0664C28.8299 12.6666 29.1679 14.382 29.1626 16.1135C29.1591 23.3786 23.2485 29.2909 15.987 29.2909ZM23.215 19.4211C22.8176 19.2215 20.8716 18.2644 20.5078 18.132C20.1458 17.9995 19.8826 17.9342 19.6178 18.3297C19.3529 18.7253 18.5935 19.6171 18.3622 19.882C18.1308 20.1469 17.8995 20.1787 17.5039 19.9809C17.1084 19.7831 15.8316 19.3646 14.3182 18.0154C13.1403 16.9647 12.3456 15.6685 12.1143 15.2711C11.883 14.8738 12.0896 14.6601 12.2891 14.4623C12.4675 14.2857 12.6847 13.9997 12.8825 13.7683C13.0803 13.537 13.1456 13.3728 13.2781 13.1079C13.4105 12.843 13.3452 12.6116 13.2445 12.4138C13.1456 12.2143 12.3527 10.2647 12.0225 9.47179C11.7028 8.70361 11.3761 8.80603 11.1324 8.79544C10.8801 8.78511 10.6275 8.7804 10.3749 8.78131C10.174 8.78643 9.97635 8.83299 9.79433 8.91808C9.6123 9.00316 9.44982 9.12494 9.31706 9.27577C8.95328 9.67311 7.93081 10.6302 7.93081 12.5798C7.93081 14.5294 9.35062 16.4137 9.5484 16.6786C9.74619 16.9435 12.3421 20.9433 16.3155 22.6598C17.262 23.0678 18.0002 23.3115 18.5741 23.4951C19.5224 23.7971 20.3859 23.7529 21.0694 23.6523C21.8305 23.5393 23.4127 22.6952 23.743 21.7698C24.0732 20.8444 24.0732 20.0515 23.9743 19.8855C23.8754 19.7195 23.6088 19.6189 23.215 19.4211" fill="#FF001E"/>
</svg>
