<svg width="39" height="28" viewBox="0 0 39 28" fill="none" xmlns="http://www.w3.org/2000/svg">
<path d="M38.9999 13.8795C38.9999 13.785 38.9999 13.6776 38.9956 13.553C38.9913 13.2049 38.9827 12.8139 38.9741 12.3971C38.9397 11.1983 38.8796 10.0038 38.785 8.87798C38.6561 7.32681 38.4671 6.03345 38.2093 5.06235C37.9372 4.04893 37.4039 3.12467 36.6627 2.38195C35.9215 1.63922 34.9983 1.10406 33.9854 0.829931C32.7694 0.503369 30.3889 0.301416 27.0374 0.176807C25.4432 0.11665 23.7374 0.0779783 22.0315 0.0564939C21.4343 0.0479001 20.88 0.0436035 20.3815 0.0393066H19.1182C18.6198 0.0436035 18.0655 0.0479001 17.4682 0.0564939C15.7624 0.0779783 14.0565 0.11665 12.4624 0.176807C9.11082 0.305713 6.72605 0.507666 5.51433 0.829931C4.50113 1.10338 3.5776 1.63833 2.83628 2.38115C2.09496 3.12398 1.56189 4.0486 1.2905 5.06235C1.02839 6.03345 0.843628 7.32681 0.714722 8.87798C0.62019 10.0038 0.560034 11.1983 0.525659 12.3971C0.512768 12.8139 0.508472 13.2049 0.504175 13.553C0.504175 13.6776 0.499878 13.785 0.499878 13.8795V14.1202C0.499878 14.2147 0.499878 14.3221 0.504175 14.4467C0.508472 14.7948 0.517065 15.1858 0.525659 15.6026C0.560034 16.8014 0.62019 17.9959 0.714722 19.1217C0.843628 20.6729 1.03269 21.9663 1.2905 22.9374C1.8405 24.9956 3.45613 26.6198 5.51433 27.1698C6.72605 27.4963 9.11082 27.6983 12.4624 27.8229C14.0565 27.8831 15.7624 27.9217 17.4682 27.9432C18.0655 27.9518 18.6198 27.9561 19.1182 27.9604H20.3815C20.88 27.9561 21.4343 27.9518 22.0315 27.9432C23.7374 27.9217 25.4432 27.8831 27.0374 27.8229C30.3889 27.694 32.7737 27.492 33.9854 27.1698C36.0436 26.6198 37.6593 24.9999 38.2093 22.9374C38.4714 21.9663 38.6561 20.6729 38.785 19.1217C38.8796 17.9959 38.9397 16.8014 38.9741 15.6026C38.987 15.1858 38.9913 14.7948 38.9956 14.4467C38.9956 14.3221 38.9999 14.2147 38.9999 14.1202V13.8795ZM35.9061 14.103C35.9061 14.1932 35.9061 14.292 35.9018 14.4081C35.8975 14.7432 35.8889 15.1127 35.8803 15.5124C35.8503 16.6553 35.7901 17.7983 35.6999 18.8596C35.5839 20.2432 35.4206 21.3776 35.2186 22.1381C34.9522 23.1307 34.1702 23.917 33.1819 24.1792C32.2796 24.4198 30.0065 24.6131 26.9171 24.7291C25.353 24.7893 23.6686 24.828 21.9885 24.8495C21.3999 24.8581 20.8542 24.8624 20.3643 24.8624H19.1354L17.5112 24.8495C15.8311 24.828 14.1511 24.7893 12.5827 24.7291C9.49324 24.6088 7.21589 24.4198 6.31785 24.1792C5.32957 23.9127 4.54753 23.1307 4.28113 22.1381C4.07917 21.3776 3.91589 20.2432 3.79988 18.8596C3.70964 17.7983 3.65378 16.6553 3.61941 15.5124C3.60652 15.1127 3.60222 14.7389 3.59793 14.4081C3.59793 14.292 3.59363 14.1889 3.59363 14.103V13.8967C3.59363 13.8065 3.59363 13.7077 3.59793 13.5917C3.60222 13.2565 3.61082 12.887 3.61941 12.4874C3.64949 11.3444 3.70964 10.2014 3.79988 9.14009C3.91589 7.75649 4.07917 6.62212 4.28113 5.86157C4.54753 4.86899 5.32957 4.08267 6.31785 3.82056C7.22019 3.57993 9.49324 3.38657 12.5827 3.27056C14.1468 3.2104 15.8311 3.17173 17.5112 3.15024C18.0999 3.14165 18.6456 3.13735 19.1354 3.13735H20.3643L21.9885 3.15024C23.6686 3.17173 25.3487 3.2104 26.9171 3.27056C30.0065 3.39087 32.2839 3.57993 33.1819 3.82056C34.1702 4.08696 34.9522 4.86899 35.2186 5.86157C35.4206 6.62212 35.5839 7.75649 35.6999 9.14009C35.7901 10.2014 35.846 11.3444 35.8803 12.4874C35.8932 12.887 35.8975 13.2608 35.9018 13.5917C35.9018 13.7077 35.9061 13.8108 35.9061 13.8967V14.103ZM15.9257 19.7577L25.8944 13.9569L15.9257 8.24204V19.7577Z" fill="#FF001E"/>
</svg>
